<?xml version="1.0" encoding="UTF-8" standalone="no"?>
<svg
   xmlns:dc="http://purl.org/dc/elements/1.1/"
   xmlns:cc="http://creativecommons.org/ns#"
   xmlns:rdf="http://www.w3.org/1999/02/22-rdf-syntax-ns#"
   xmlns:svg="http://www.w3.org/2000/svg"
   xmlns="http://www.w3.org/2000/svg"
   xmlns:sodipodi="http://sodipodi.sourceforge.net/DTD/sodipodi-0.dtd"
   xmlns:inkscape="http://www.inkscape.org/namespaces/inkscape"
   version="1.1"
   id="svg2"
   xml:space="preserve"
   width="1066.6667"
   height="800"
   viewBox="0 0 1066.6667 800"
   sodipodi:docname="etsy.eps"><metadata
     id="metadata8"><rdf:RDF><cc:Work
         rdf:about=""><dc:format>image/svg+xml</dc:format><dc:type
           rdf:resource="http://purl.org/dc/dcmitype/StillImage" /></cc:Work></rdf:RDF></metadata><defs
     id="defs6"><linearGradient
       x1="0"
       y1="0"
       x2="1"
       y2="0"
       gradientUnits="userSpaceOnUse"
       gradientTransform="matrix(-2.623e-4,-6000,-6000,2.623e-4,4000,6000)"
       spreadMethod="pad"
       id="linearGradient18"><stop
         style="stop-opacity:1;stop-color:#db601c"
         offset="0"
         id="stop14" /><stop
         style="stop-opacity:1;stop-color:#c63a21"
         offset="1"
         id="stop16" /></linearGradient></defs><sodipodi:namedview
     pagecolor="#ffffff"
     bordercolor="#666666"
     borderopacity="1"
     objecttolerance="10"
     gridtolerance="10"
     guidetolerance="10"
     inkscape:pageopacity="0"
     inkscape:pageshadow="2"
     inkscape:window-width="640"
     inkscape:window-height="480"
     id="namedview4" /><g
     id="g10"
     inkscape:groupmode="layer"
     inkscape:label="ink_ext_XXXXXX"
     transform="matrix(1.3333333,0,0,-1.3333333,0,800)"><g
       id="g12"
       transform="scale(0.1)"><path
         d="M 8000,0 H 0 V 6000 H 8000 V 0"
         style="fill:url(#linearGradient18);fill-opacity:1;fill-rule:nonzero;stroke:none"
         id="path20" /><path
         d="m 2349.59,3778.75 c -0.76,17.49 5.84,31.67 29.17,31.67 23.33,0 260.01,-7.5 419.17,-7.5 330,0 409.16,26.67 465.83,26.67 31.67,-0.83 38.34,-25 38.34,-39.17 0,-14.17 -15,-44.17 -15,-83.33 0,-39.17 9.16,-80.84 9.16,-115 0,-34.17 -29.16,-45.83 -44.99,-45.83 -15.84,0 -25.8,5.84 -26.68,35 -1.66,55.83 39.17,136.66 -361.66,136.66 -204.17,0 -209.17,-23.34 -209.17,-88.33 0,-65 1.67,-280 1.67,-313.33 0,-33.34 10,-43.34 36.67,-43.34 26.66,0 235.83,0 292.5,0 56.67,0 114.16,30.83 120.83,110.83 2.5,42.5 14.16,44.17 35,44.17 20.83,0 40,-16.67 36.67,-56.66 -3.34,-40.01 -11.67,-82.51 -11.67,-140 0,-57.51 11.67,-114.18 11.67,-155.83 0,-41.68 -55.01,-51.67 -65.83,-6.68 -10.84,45 -26.68,120.84 -155.01,120.84 -128.33,0 -231.66,0 -260,0 -28.33,0 -42.5,-15.84 -42.5,-62.5 0,-46.67 0,-275 0,-332.51 0,-57.49 17.5,-119.16 134.17,-119.16 116.66,0 328.33,-12.5 425,63.34 41.66,34.17 54.17,81.66 68.33,159.16 6.67,35.83 84.17,35 80.84,-47.5 -2.51,-38.34 -39.24,-120.65 -39.24,-173.47 0,-44.18 10.1,-103.29 -30.76,-103.29 -34.53,0 -20.01,17.6 -171.67,17.6 -151.67,0 -675,-3.34 -762.5,-3.34 -32.5,0 -39.17,9.17 -39.17,29.17 0,19.99 11.67,35 39.17,35 27.5,0 144.16,-1.66 144.16,146.66 0,148.34 0,690.84 0,770.84 0,80 -17.5,159.99 -115.83,170 -38.33,3.33 -35.83,20 -36.67,39.16"
         style="fill:#ffffff;fill-opacity:1;fill-rule:nonzero;stroke:none"
         id="path22" /><path
         d="m 3419.59,3312.37 c 0,24.99 13.34,35.55 43.34,45.55 56.67,21.66 121.67,85 176.66,235 17.5,47.5 77.5,35 70,-13.33 -7.49,-48.34 -18.33,-137.5 -18.33,-188.34 25.83,0 217.5,0 241.67,0 24.17,0 28.33,-29.17 28.33,-52.5 0,-23.33 -6.67,-42.5 -27.49,-42.5 -22.51,0 -242.51,0 -242.51,0 0,0 0,-267.49 0,-418.32 0,-150.84 51.67,-185.84 120.84,-185.84 40,0 72.49,15.84 102.5,36.66 20,15.01 65,-20.82 42.5,-49.99 -22.5,-29.17 -101.67,-115 -215,-115 -113.34,0 -195,84.16 -193.33,224.99 1.66,140.84 7.49,375.84 7.49,408.34 0,32.5 -42.49,78.33 -90,78.33 -39.16,0.83 -46.67,21.39 -46.67,36.95"
         style="fill:#ffffff;fill-opacity:1;fill-rule:nonzero;stroke:none"
         id="path24" /><path
         d="m 4400.43,3415.42 c 78.33,0 139.17,-27.5 165,-27.5 25.83,0 35.83,32.5 64.16,32.5 28.34,0 35,-32.5 27.51,-60 -7.51,-27.5 -12.5,-92.5 -9.18,-165 0.84,-25 -19.16,-40 -39.16,-40 -20,0 -27.5,8.33 -35.84,46.67 -8.32,38.33 -42.49,130.83 -177.49,130.83 -97.51,0 -135,-65 -135,-107.5 0,-42.5 22.81,-83.13 126.66,-128.33 109.17,-47.5 310.84,-98.34 310.84,-291.67 -6.67,-181.67 -186.67,-239.17 -292.5,-239.17 -89.17,0 -172.5,26.67 -209.17,26.67 -36.67,0 -50.83,-30.83 -74.17,-30.83 -23.33,0 -40,26.66 -30.83,54.17 9.16,27.5 20.83,48.33 20.83,75.83 0,27.5 -15.83,91.67 -6.67,145 9.18,53.33 80.84,60.83 80.01,9.16 -0.83,-51.67 22.5,-199.16 209.17,-199.16 150.83,0 168.33,105 168.33,135 0,36.67 -7.51,89.17 -188.34,160.83 -180.83,71.67 -250.83,138.34 -250.83,252.5 0,114.16 101.67,220 276.67,220"
         style="fill:#ffffff;fill-opacity:1;fill-rule:nonzero;stroke:none"
         id="path26" /><path
         d="m 4750.43,3367.09 c 0,17.5 0.83,25.83 20.83,25.83 20,0 125.84,-3.33 181.66,-3.33 55.84,0 158.35,3.33 179.17,3.33 15.01,0 10.84,-18.33 10.84,-30.84 0,-12.49 1.66,-33.33 -25,-33.33 -26.67,0 -76.66,-9.16 -76.66,-53.33 0,-44.16 11.76,-56.47 29.16,-104.17 19.17,-52.5 157.5,-369.99 157.5,-369.99 0,0 108.33,222.5 140.83,284.99 32.5,62.5 52.5,140.84 52.5,175.84 0,35 -35.83,58.33 -65.84,64.16 -30,5.84 -44.99,4.17 -44.99,40 0,18.34 3.33,28.34 18.33,28.34 15,0 105,-5.83 171.66,-5.83 66.68,0 144.17,4.16 165.84,4.16 20,0 14.17,-16.67 14.17,-30.84 0,-14.16 -1.67,-28.32 -19.17,-30.83 -17.5,-2.5 -94.99,0.84 -175.83,-170.83 -80.83,-171.66 -240.84,-517.5 -356.66,-742.5 -60.01,-118.33 -173.34,-247.5 -291.67,-247.5 -61.67,-0.83 -85.84,52.5 -85.84,79.17 0,26.67 15,70 85,70 46.66,0 59.17,-22.5 81.66,-22.5 46.67,0 165.01,113.34 198.34,316.66 5,46.67 -42.98,160.97 -61.66,212.51 -27.78,76.66 -112.22,298.88 -173.34,430.82 -20.86,45.09 -75.83,68.34 -110.83,72.51 -16.67,3.33 -20,9.16 -20,37.5"
         style="fill:#ffffff;fill-opacity:1;fill-rule:nonzero;stroke:none"
         id="path28" /></g></g></svg>
