<?xml version="1.0" encoding="UTF-8" standalone="no"?>
<svg
   xmlns:dc="http://purl.org/dc/elements/1.1/"
   xmlns:cc="http://creativecommons.org/ns#"
   xmlns:rdf="http://www.w3.org/1999/02/22-rdf-syntax-ns#"
   xmlns:svg="http://www.w3.org/2000/svg"
   xmlns="http://www.w3.org/2000/svg"
   xmlns:sodipodi="http://sodipodi.sourceforge.net/DTD/sodipodi-0.dtd"
   xmlns:inkscape="http://www.inkscape.org/namespaces/inkscape"
   version="1.1"
   id="svg2"
   xml:space="preserve"
   width="90.506668"
   height="93.346664"
   viewBox="0 0 90.506668 93.346664"
   sodipodi:docname="twitch.eps"><metadata
     id="metadata8"><rdf:RDF><cc:Work
         rdf:about=""><dc:format>image/svg+xml</dc:format><dc:type
           rdf:resource="http://purl.org/dc/dcmitype/StillImage" /></cc:Work></rdf:RDF></metadata><defs
     id="defs6" /><sodipodi:namedview
     pagecolor="#ffffff"
     bordercolor="#666666"
     borderopacity="1"
     objecttolerance="10"
     gridtolerance="10"
     guidetolerance="10"
     inkscape:pageopacity="0"
     inkscape:pageshadow="2"
     inkscape:window-width="640"
     inkscape:window-height="480"
     id="namedview4" /><g
     id="g10"
     inkscape:groupmode="layer"
     inkscape:label="ink_ext_XXXXXX"
     transform="matrix(1.3333333,0,0,-1.3333333,0,93.346667)"><g
       id="g12"
       transform="scale(0.1)"><path
         d="m 105.398,636.984 c 0,-148.98 0,-297.515 0,-447.043 49.711,0 98.977,0 148.989,0 0,-28.48 0,-55.972 0,-84.73 2.304,2.191 3.597,3.371 4.832,4.605 25.125,25.063 50.312,50.067 75.289,75.278 3.562,3.597 7.121,5.054 12.18,5.039 52.07,-0.172 104.136,-0.207 156.203,0.097 3.824,0.024 8.578,2 11.3,4.688 32.461,32.012 64.559,64.395 96.934,96.492 3.629,3.598 4.945,7.188 4.938,12.195 -0.122,108.54 -0.094,217.083 -0.094,325.622 0,2.507 0,5.011 0,7.757 -170.625,0 -340.41,0 -510.571,0 z M 170,0.566406 c 0,27.648394 0,55.257794 0,83.714894 -56.66,0 -112.6992,0 -169.570312,0 C 0.261719,87.7852 0.0117188,90.5039 0.0117188,93.2188 -0.00390625,250.73 -0.0234375,408.238 0.0898438,565.75 0.09375,570.305 0.898438,575.051 2.32422,579.379 14.8203,617.402 27.6445,655.32 40.0703,693.363 c 1.6367,5.008 3.707,6.75 9.1485,6.746 207.5112,-0.164 415.0192,-0.136 622.5312,-0.136 2.031,0 4.066,0 6.957,0 0,-3.305 0,-6.047 0,-8.789 0,-135.75 -0.031,-271.5 0.121,-407.25 0.008,-5.664 -1.664,-9.571 -5.66,-13.547 -60.203,-59.965 -120.285,-120.051 -180.25,-180.2581 -3.98,-3.9922 -7.879,-5.6601 -13.547,-5.6211 -36.527,0.2578 -73.058,-0.043 -109.582,0.2813 -7,0.0625 -12,-1.7657 -16.98,-6.8555 C 328.715,53.3047 304.266,29.0234 279.75,4.81641 277.418,2.51563 273.754,0.238281 270.688,0.210938 238.051,-0.109375 205.406,0.0234375 172.766,0.0546875 c -0.723,0 -1.442,0.2578125 -2.766,0.5117185"
         style="fill:#5d3a9e;fill-opacity:1;fill-rule:nonzero;stroke:none"
         id="path14" /><path
         d="m 339.09,508.203 c 0,-63.172 0,-125.781 0,-188.945 -20.945,0 -41.742,0 -62.957,0 0,62.777 0,125.586 0,188.945 20.691,0 41.488,0 62.957,0"
         style="fill:#5d3a9e;fill-opacity:1;fill-rule:nonzero;stroke:none"
         id="path16" /><path
         d="m 508.477,319.008 c -20.758,0 -41.094,0 -61.836,0 0,63.086 0,125.875 0,189.207 20.371,0 40.906,0 61.836,0 0,-62.805 0,-125.602 0,-189.207"
         style="fill:#5d3a9e;fill-opacity:1;fill-rule:nonzero;stroke:none"
         id="path18" /></g></g></svg>
